<?xml version="1.0" encoding="utf-8"?>
<!-- Generator: Adobe Illustrator 18.0.0, SVG Export Plug-In . SVG Version: 6.00 Build 0)  -->
<!DOCTYPE svg PUBLIC "-//W3C//DTD SVG 1.1//EN" "http://www.w3.org/Graphics/SVG/1.1/DTD/svg11.dtd">
<svg version="1.1" id="Layer_1" xmlns="http://www.w3.org/2000/svg" xmlns:xlink="http://www.w3.org/1999/xlink" x="0px" y="0px"
	 viewBox="0 0 960 732.9" enable-background="new 0 0 960 732.9" xml:space="preserve">
<g>
	<path d="M421.7,264.4c-1,15.3,9,29.6,23.3,32.5c20.4,4.2,38.6-0.6,53.1-16.1c1.8-1.9,3-5.2,3-7.9c0.3-16.1,0.1-32.1,0.1-48.2
		c0-1.9,0-3.8,0-6.1c8.5,0,16.5,0,25.1,0c0,6.2,0,12.2,0,19.7c1.6-1.9,2.4-2.8,3-3.6c9.2-11.7,20.9-17.5,36-15.9
		c9.1,1,15,5.7,17.5,14.5c0.8,2.9,1.6,5.9,1.6,8.8c0.1,23.8,0.1,47.6,0.1,71.8c-8.1,0-16.1,0-24.8,0c0-2,0-3.8,0-5.7
		c0-18.9,0-37.8-0.1-56.7c0-3-0.2-6.1-1.2-8.8c-3.5-9.7-15-13-22.9-6.4c-3.5,2.9-6.4,6.6-9.1,10.2c-8.5,11.5-16.6,23.3-25.1,34.8
		c-11.8,15.9-26.2,28.4-46.3,32.1c-18.7,3.5-35.7-0.9-48.6-15.5c-12.6-14.3-14.1-31.2-8.6-48.8c6-19.3,23.4-31.2,44.5-30.9
		c5.1,0.1,10.2,0.7,15.2,1.9c11.6,2.9,19.9,10.1,23.4,21.6c2.1,7,2.9,14.4,4.5,22.6C463.4,264.4,442.5,264.4,421.7,264.4z
		 M460.7,260.9c-1-7.1-1.3-14-3.1-20.5c-1.5-5.2-4.3-10.5-7.8-14.7c-4.7-5.6-12.2-5.4-17.3-0.1c-9.3,9.8-11,22.2-11.6,35.2
		C434.4,260.9,447,260.9,460.7,260.9z"/>
	<path d="M268.4,224.2c0-20.9,0-40.8,0-61c8.4,0,16.2,0,24.5,0c0,50.2,0,100.3,0,150.9c-8,0-16,0-24.6,0c0-4.4,0-8.7,0-14.7
		c-6.8,8.7-14.4,13.1-23.5,14.8c-20,3.8-38.7-7-46.3-26.7c-4.3-11.1-5.1-22.7-2.8-34.4c3.9-19.4,17.9-31.6,38.1-34.2
		C245.4,217.5,256.6,218.4,268.4,224.2z M268.1,267.7C268.1,267.7,268.1,267.7,268.1,267.7c-0.1-6.2,0.7-12.5-0.3-18.5
		c-1.1-6.4-2.9-13.2-6.2-18.8c-4.3-7.5-12.1-9.9-20.6-8.8c-8.6,1.1-13.5,6.9-14.7,14.6c-1.8,11.2-2.8,22.7-2.7,34.1
		c0,8,1.7,16.1,3.7,23.9c1.8,7,6.8,11.8,14.5,13c14.5,2.3,25.5-6.3,26.4-21C268.4,280,268.1,273.8,268.1,267.7z"/>
	<path d="M765.9,314.3c-8.2,0-16.1,0-24.6,0c0-6.3,0-12.3,0-18.4c-5.3,4.5-9.9,9.1-15.2,12.7c-7.2,4.9-15.4,6.8-24.2,5.8
		c-9.3-1.1-15.5-5.8-17.9-14.8c-1.2-4.6-1.9-9.4-2-14.1c-0.2-21.4-0.1-42.7-0.1-64.1c0-0.9,0.2-1.7,0.3-3c8.1,0,16.1,0,24.7,0
		c0,2,0,3.9,0,5.8c0,19.4,0,38.8,0,58.3c0,12,5.3,17.6,16.3,17.4c9.4-0.1,18.2-8.9,18.2-18.3c0-19.1,0-38.1,0-57.2
		c0-1.9,0-3.8,0-6.1c8.4,0,16.3,0,24.6,0C765.9,250.1,765.9,281.9,765.9,314.3z"/>
	<path d="M184.4,314.3c-8.5,0-16.4,0-24.9,0c0-4.4,0-8.5,0-13.7c-10.2,12.1-22.1,16-36.2,12.9c-8.7-2-14.6-7.2-15.7-16.4
		c-1.1-9.4,1.3-17.8,10-22.7c4.6-2.6,9.6-4.5,14.6-6c7.8-2.4,15.7-4,23.5-6.2c1.4-0.4,3.5-2,3.4-3c-0.6-8.7-0.3-17.9-2.9-26
		c-4-12.4-17.6-14.5-26.9-5.4c-0.7,0.7-1.2,1.7-2,2.8c1.2,0.6,2.1,1,3,1.5c6.2,2.9,8.8,8.9,6.2,14.8c-2.5,5.8-9.3,8.4-15.1,5.9
		c-5.9-2.6-8.8-9.7-5.6-15.6c6.3-11.9,16.9-17.6,29.9-19.1c3.5-0.4,7.1-0.2,10.6,0c14.7,1.2,23.7,9,26.9,23.4
		c1,4.6,1.6,9.4,1.6,14.2c0.1,18.2,0,36.3-0.1,54.5C184.7,311.5,184.5,312.7,184.4,314.3z M159.3,265c-8.8,2.2-16.5,4.9-22,11.7
		c-4,5-5.2,10.8-3.3,17c1.7,5.8,6.8,9,13.1,8.6c5.5-0.4,11.8-5.1,12.1-10.2C159.7,283.3,159.3,274.5,159.3,265z"/>
	<path d="M637.3,188.6c0,10.2,0,19.5,0,29.5c8,0,15.7,0,23.3,0c-2.7,4.9-6.8,2.9-10.3,3.2c-4,0.4-8.1,0.1-12.7,0.1
		c-0.1,2-0.3,3.6-0.3,5.3c0,18.4,0,36.7,0,55.1c0,1.6,0,3.2,0.2,4.8c0.7,5.7,2.5,10.8,8.6,12.9c6,2,11.4,1.1,16.2-3.3
		c0.9-0.9,2.5-1,3.8-1.5c-0.2,1.4-0.1,3-0.7,4.2c-7.1,12-23.1,18.5-36.7,15c-9.3-2.4-14.5-8.8-15.8-20.1c-0.5-4.4-0.6-8.8-0.7-13.2
		c-0.1-18-0.1-36,0-54c0-3.9-1-5.5-5-5.1c-1.7,0.2-3.6-0.6-5.4-0.9c0-0.6,0.1-1.2,0.1-1.8c3.1-0.3,6.2-0.6,10.1-0.9
		c0-8.2,0-16.4,0-24.7C620.5,191.4,628.5,190.1,637.3,188.6z"/>
	<path d="M847.3,247c-1.1-1.6-2.4-3.1-3.1-4.8c-4.8-11-11.9-19.1-24.6-20.7c-6.9-0.9-12.3,1.3-14.6,6c-2.3,4.7-1.2,10.8,3.9,15.3
		c4.2,3.7,9,6.7,13.7,9.8c6.3,4.2,13,7.9,18.9,12.6c8.5,6.8,13.9,15.7,12.2,27.1c-1.8,11.8-10.1,19.4-24.3,21.4
		c-14.1,2-27.8,0.1-40.8-6c-3.1-1.5-4.5-3.3-4.3-6.9c0.3-5.6,0-11.3,0.2-16.9c0-1.3,1.1-2.5,1.6-3.8c1,1,2.3,1.9,2.9,3.1
		c3,5.5,5.4,11.6,9,16.7c5.4,7.7,13.4,11.2,22.9,11.1c8.6-0.1,13.5-6.7,11.4-15.1c-1.5-6-5.4-10.2-10.5-13.4
		c-6.6-4.1-13.6-7.6-19.8-12.2c-5.4-3.9-10.8-8.2-14.7-13.4c-9.2-12.5-4.7-28.4,9.3-35.1c12.3-5.9,25.2-4.7,37.9-2.6
		c14.8,2.4,14.8,2.7,14.8,17.4c0,3.1,0,6.2,0,9.3C848.6,246.5,848,246.8,847.3,247z"/>
	<path d="M854.4,340.1c-0.9,0.9-1.6,2.3-2.6,2.6c-1.5,0.5-3.1,0.1-4.7,0.1c-244.2,0-488.4,0-732.6-0.1c-2.3,0-5.9,2.3-7-2.2
		c2.3-0.6,4.6-1.7,7-1.7c244.2-0.1,488.4-0.1,732.6-0.1c2.2,0,4.5,0,6.7,0C853.9,339.2,854.2,339.6,854.4,340.1z"/>
	<path d="M362.1,280.7c2.3-5.8,4.3-10.6,6.3-15.5c5.8-14.4,11.6-28.8,17.5-43.1c0.7-1.7,2.5-3,3.8-4.5c0.5,0.4,0.9,0.7,1.4,1.1
		c-0.5,1.5-1,2.9-1.5,4.4c-11.6,29-23.2,58-35,86.9c-0.7,1.7-2.4,3-3.6,4.6c-1.2-1.4-2.7-2.7-3.4-4.3c-13.5-29.1-27-58.3-40.4-87.4
		c-0.6-1.3-1.1-2.6-2-4.8c9.1,0,17.6-0.2,26.1,0.2c1.2,0.1,2.6,2.6,3.3,4.2c8.3,17.5,16.5,35.1,24.7,52.7
		C360.1,276.7,360.9,278.3,362.1,280.7z"/>
	<path d="M526.2,314.1c-8.2,0-16.1,0-25,0c1.4-12-3.7-24.5,6.2-35.5c6.8-7.5,12.1-16.4,18.8-25.7
		C526.2,273.9,526.2,293.7,526.2,314.1z"/>
	<path d="M427.8,373.6c4.8,0,9.4-0.3,13.9,0.1c4.8,0.4,8.3,5.1,8.2,10.1c-0.2,5.1-3.8,9-8.8,9.4c-2.2,0.2-4.5,0-7.2,0
		c-0.2,3.5-0.3,6.6-0.5,9.9c-1.9,0-3.6,0-5.5,0C427.8,393.2,427.8,383.6,427.8,373.6z M433.7,389c3.7-1.1,6.9-1.6,9.4-3.1
		c0.8-0.5,0.6-5-0.3-5.5c-2.6-1.4-5.8-1.6-9.2-2.4C433.7,382,433.7,384.6,433.7,389z"/>
	<path d="M388.7,402.8c-4,1.4-6.4,0.6-7.1-3.3c-0.8-4.3-4-3.5-7-3.6c-3.1-0.2-5.6,0.1-6.3,3.8c-0.8,4-3.3,4.4-7,3
		c3.5-9.1,6.8-18.2,10.4-27.2c1.2-2.9,5.4-3.1,6.6-0.3C381.9,384.3,385.2,393.5,388.7,402.8z M370.8,391.4c3,0,5.2,0,8.2,0
		c-1.4-3.7-2.6-6.9-4.1-11C373.3,384.7,372.1,387.9,370.8,391.4z"/>
	<path d="M575.8,402.8c3.5-9.1,6.8-18,10.4-26.8c0.5-1.1,2.3-2.5,3.3-2.4c1.4,0.2,3.2,1.4,3.7,2.6c3.5,8.6,6.7,17.4,10.1,26.5
		c-3.5,1.2-6.2,1.2-7-2.9c-0.9-4.4-4-3.9-7.3-4c-3.1-0.1-5.6,0.2-6.2,3.9C582.2,403.6,579.7,403.9,575.8,402.8z M589.6,380
		c-1.7,4.7-2.8,7.8-4,11.4c2.9,0,5.2,0,8,0C592.4,387.8,591.3,384.7,589.6,380z"/>
	<path d="M324.5,395.5c-3.7,7.3-9.9,9.5-15.9,7.4c-6.1-2.1-10.3-8.5-10.1-15.3c0.2-6.5,4.4-12.2,10.3-13.9
		c6.5-1.8,11.9,0.2,15.6,5.9c-1,0.8-2.1,1.7-3.4,2.7c-0.6-0.4-1.2-0.8-1.7-1.2c-4.4-3.6-8.9-3.7-12.2-0.3
		c-3.6,3.7-3.7,10.6-0.3,14.6c3.2,3.7,7.6,3.7,12.3,0.6C320.5,395.2,322.7,395.6,324.5,395.5z"/>
	<path d="M529.9,379.9c-3.7-2.8-10,1.6-9.4-6.1c8.2,0,16,0,23.8,0c0.8,4.1,0.8,4.1-8.5,5.4c0,7.8,0,15.8,0,24c-2.3,0-3.8,0-5.9,0
		C529.9,395,529.9,387,529.9,379.9z"/>
	<path d="M647.5,398.1c5.5,0,10,0,15,0c0.1,1.7,0.2,3.2,0.4,5c-7.1,0-13.7,0-20.6,0c0-9.8,0-19.4,0-29.3c1.7-0.1,3.2-0.1,5.2-0.2
		C647.5,381.7,647.5,389.6,647.5,398.1z"/>
	<path d="M482.4,373.8c1.9,0,3.4,0,5.1,0c0,9.9,0,19.4,0,29.3c-1.8,0-3.2,0-5.1,0C482.4,393.4,482.4,383.8,482.4,373.8z"/>
</g>
<rect x="238.5" y="659.9" fill="none" width="483" height="58"/>
<text transform="matrix(1 0 0 1 328.8516 681.7197)" font-family="'GillSans'" font-size="32">info@adventuscap.com</text>
</svg>
