<?xml version="1.0" encoding="utf-8"?>
<!-- Generator: Adobe Illustrator 18.0.0, SVG Export Plug-In . SVG Version: 6.00 Build 0)  -->
<!DOCTYPE svg PUBLIC "-//W3C//DTD SVG 1.1//EN" "http://www.w3.org/Graphics/SVG/1.1/DTD/svg11.dtd">
<svg version="1.1" id="Layer_1" xmlns="http://www.w3.org/2000/svg" xmlns:xlink="http://www.w3.org/1999/xlink" x="0px" y="0px"
	 viewBox="0 0 54 62" enable-background="new 0 0 54 62" xml:space="preserve">
<g>
	<path d="M43.8,52.8c-3.9,0-7.4,0-11.3,0c0-2,0-3.8,0-6.2c-4.6,5.5-10,7.3-16.4,5.8C12.2,51.5,9.5,49.1,9,45
		c-0.5-4.3,0.6-8,4.5-10.3c2.1-1.2,4.3-2,6.6-2.7c3.5-1.1,7.1-1.8,10.7-2.8c0.6-0.2,1.6-0.9,1.6-1.4c-0.3-4-0.1-8.1-1.3-11.8
		c-1.8-5.6-8-6.6-12.2-2.4c-0.3,0.3-0.5,0.7-0.9,1.3c0.5,0.3,0.9,0.5,1.4,0.7c2.8,1.3,4,4,2.8,6.7c-1.1,2.6-4.2,3.8-6.8,2.7
		c-2.7-1.2-4-4.4-2.6-7c2.9-5.4,7.6-8,13.5-8.6c1.6-0.2,3.2-0.1,4.8,0c6.7,0.6,10.7,4.1,12.2,10.6c0.5,2.1,0.7,4.3,0.7,6.4
		c0.1,8.2,0,16.5,0,24.7C43.9,51.5,43.8,52,43.8,52.8z M32.4,30.4c-4,1-7.5,2.2-9.9,5.3c-1.8,2.3-2.3,4.9-1.5,7.7
		c0.8,2.6,3.1,4.1,5.9,3.9c2.5-0.2,5.4-2.3,5.5-4.6C32.6,38.7,32.4,34.7,32.4,30.4z"/>
</g>
</svg>
